<svg version="1.1" id="Layer_1" xmlns="http://www.w3.org/2000/svg" xmlns:xlink="http://www.w3.org/1999/xlink" x="0px" y="0px"
	 width="100%" viewBox="0 0 1024 1024" enable-background="new 0 0 1024 1024" xml:space="preserve">
<path fill="#000000" opacity="1.000000" stroke="none" 
	d="
M699.024414,711.030762 
	C683.042603,698.797058 667.417786,685.870850 649.040100,677.403137 
	C639.306458,672.918274 628.627441,670.420776 618.277405,667.356262 
	C607.753174,664.240112 597.062500,661.686951 586.531494,658.591980 
	C578.026062,656.092346 569.261597,657.991333 560.706665,656.586914 
	C558.166870,656.169983 556.199951,656.020874 555.086548,652.931152 
	C553.864441,649.539673 550.343750,649.215942 547.951477,652.190430 
	C546.205933,654.360840 544.444153,655.001709 541.936768,654.472473 
	C541.454163,654.370605 540.919495,654.311462 540.444519,654.408142 
	C533.001526,655.922241 525.546082,657.159729 517.925354,655.336365 
	C534.186462,664.441345 549.218567,675.331299 565.880981,683.245850 
	C585.883545,692.747070 606.570007,700.374207 628.662720,703.734985 
	C634.979309,704.695862 641.222046,704.983398 647.550964,704.834656 
	C651.543030,704.740845 655.543823,704.508057 659.489258,705.500488 
	C661.599304,706.031189 664.062988,706.216125 664.342102,708.956360 
	C664.640381,711.885071 662.269653,713.062073 660.042236,713.718689 
	C652.314026,715.996948 644.384827,717.193787 636.385437,715.755798 
	C618.998535,712.630005 602.083313,708.160522 585.819214,700.807922 
	C575.406311,696.100464 564.129089,693.146362 554.169067,687.374146 
	C543.831238,681.382812 532.466614,677.532654 522.229004,671.391235 
	C514.084167,666.505188 504.646179,665.375122 495.831146,662.433289 
	C491.413422,660.959045 487.014740,659.427002 482.588165,657.980042 
	C480.697418,657.361938 478.678131,656.240479 476.852356,656.461914 
	C462.044067,658.257446 447.425232,653.417542 432.621887,655.356140 
	C429.814301,655.723755 427.647675,656.293152 426.106934,659.038147 
	C409.291229,688.996521 390.813110,717.714600 368.513641,744.098328 
	C352.745605,762.754456 337.554443,782.046692 323.853088,802.382446 
	C323.402496,803.051147 322.782867,803.605957 321.975922,804.513123 
	C319.233337,802.041931 316.164886,800.664917 312.484863,801.617615 
	C312.026031,798.948486 313.671295,797.531738 314.798859,796.043396 
	C333.314026,771.604309 352.520386,747.706360 372.772491,724.696350 
	C385.411743,710.335999 395.333160,694.195190 405.548462,678.200806 
	C407.717560,674.804565 406.563751,670.740234 407.398956,667.032166 
	C407.848572,665.036072 405.357727,664.725403 403.771576,664.455505 
	C399.489807,663.727295 395.319366,662.631104 391.245239,661.135742 
	C388.727325,660.211609 387.853210,658.845520 389.293671,656.208069 
	C392.315887,650.674500 390.828033,646.006836 386.281952,641.953003 
	C382.798279,638.846497 379.506775,635.560730 377.156006,631.423889 
	C376.536438,630.333618 375.377991,629.357544 374.237915,628.785461 
	C365.028778,624.164124 357.740356,616.979370 349.916382,610.543030 
	C345.177948,606.644958 341.115784,601.971436 335.383148,599.286438 
	C332.821533,598.086670 330.931519,595.754883 329.389923,593.365662 
	C326.689789,589.180725 323.247559,585.517395 320.426636,581.554810 
	C315.844696,575.118591 314.577026,567.111023 316.088409,559.134888 
	C316.744202,555.673950 320.245422,554.619446 323.127106,556.707947 
	C324.299561,557.557617 325.607941,558.768860 325.990448,560.069641 
	C328.356171,568.115051 333.619141,574.566223 337.598969,581.715088 
	C338.563232,583.447083 339.502991,585.442078 341.009460,586.582214 
	C350.405579,593.693176 356.839966,603.685608 365.509369,611.459229 
	C370.132324,615.604614 374.291534,620.572815 381.186707,621.771545 
	C352.950958,582.804993 330.397003,539.341675 290.136108,509.082184 
	C293.170807,518.218994 297.820160,525.978638 301.816376,534.049438 
	C304.414185,539.296021 308.579254,543.989807 308.325348,550.385132 
	C308.254730,552.164490 308.674927,554.358032 306.306030,554.949402 
	C304.010712,555.522522 303.055786,553.630798 302.303375,551.963379 
	C298.898865,544.418640 295.248749,536.964111 293.163269,528.898560 
	C291.934601,524.146851 289.658630,519.950562 286.150818,515.406250 
	C285.391144,521.130005 283.581360,525.995850 284.927124,531.342529 
	C285.774658,534.709595 286.013763,538.228760 286.545410,541.676697 
	C286.918518,544.096436 286.464233,545.574097 283.638367,546.444885 
	C279.282684,547.787109 276.954102,553.254272 278.522583,557.471008 
	C280.178223,561.922119 283.477539,560.947144 286.981842,559.347290 
	C291.184875,569.407776 296.191101,578.771667 302.188843,587.539246 
	C312.460876,602.555054 326.507355,613.576904 341.914948,622.670532 
	C352.062164,628.659424 361.876251,635.374573 372.913361,639.818054 
	C375.351624,640.799683 376.361877,642.581421 375.656921,645.436401 
	C375.201050,647.282593 375.571198,649.332764 375.571198,652.090637 
	C367.493896,648.731506 359.824066,645.360962 353.605133,640.029297 
	C343.362640,631.248230 330.623047,626.730225 319.883392,618.751953 
	C302.453979,605.804016 287.755463,590.810730 278.199280,571.122009 
	C274.496918,563.494019 272.452057,555.523804 272.862030,547.008362 
	C273.056213,542.975769 272.733765,539.035767 271.397949,535.190247 
	C270.121277,531.514954 269.916504,527.813049 270.590057,523.905823 
	C272.113312,515.069763 273.343475,506.181732 274.583923,497.299652 
	C274.809204,495.686554 274.699280,493.970551 274.428345,492.355042 
	C273.685455,487.925323 275.098236,486.084808 279.237915,487.108551 
	C288.454468,489.387756 296.756470,493.469971 303.100769,500.803040 
	C304.741699,502.699707 306.150848,504.992676 308.422974,506.004822 
	C320.097443,511.205231 323.313904,524.042664 332.037720,531.882568 
	C333.559387,533.250061 332.521423,534.971436 332.128143,536.569092 
	C330.781738,542.038818 334.156342,546.737305 339.777527,546.670654 
	C343.075989,546.631531 345.148132,547.696533 346.495789,550.635986 
	C357.413055,574.448425 373.798096,594.652710 389.092010,615.613281 
	C397.044830,626.512756 405.001343,637.349854 414.571289,647.111328 
	C414.480560,647.140991 414.902893,647.134827 415.005035,646.950989 
	C432.953461,614.625732 450.043793,581.933289 461.321472,546.496704 
	C466.900604,528.965881 468.715698,511.083618 468.699371,492.860260 
	C468.696838,490.049255 467.660004,488.749908 464.770691,488.203583 
	C451.681854,485.728668 440.404694,479.820190 430.670837,470.582703 
	C417.966248,458.525909 405.803558,446.179108 395.532532,431.788849 
	C388.322327,421.686920 379.429077,412.755341 372.790985,402.106934 
	C369.148621,396.264069 369.250519,394.771606 374.809753,389.574219 
	C375.805573,389.555481 376.316101,390.271179 376.695709,390.992004 
	C383.250519,403.439026 391.929260,414.257751 400.810608,425.156433 
	C411.092926,437.774384 422.443756,449.064453 434.428223,459.919952 
	C443.491364,468.129333 453.778961,473.989868 465.652832,477.919312 
	C466.001892,478.001038 465.978027,477.977875 465.978027,477.977875 
	C468.605316,486.155731 469.703217,486.684448 481.239563,485.323120 
	C482.908875,486.872925 481.812439,489.080231 482.500854,490.886261 
	C483.165100,490.399689 483.783142,489.946930 485.110870,488.974335 
	C485.262329,498.872192 480.287689,507.115845 480.684875,516.582947 
	C481.072083,525.811340 477.976776,535.123108 475.620361,544.361145 
	C483.040375,533.819763 491.364807,524.181396 499.607208,513.993530 
	C501.771027,516.485962 503.553040,518.538696 505.620911,520.920654 
	C501.379211,525.982300 497.128937,531.054077 492.014313,537.157349 
	C500.541382,536.125916 507.973389,535.230103 515.404297,534.325562 
	C517.051819,534.125000 518.690247,533.770081 520.342041,533.698120 
	C527.512695,533.385986 533.830933,531.397400 539.568970,526.630920 
	C549.168579,518.656860 560.547974,514.608887 573.010681,513.636292 
	C574.992798,513.481628 577.065979,513.350281 578.904358,512.679749 
	C591.939270,507.925415 605.295471,507.932068 618.793945,509.727966 
	C632.151306,511.505127 645.741882,510.688690 659.019714,513.275513 
	C679.679688,517.300598 699.229980,525.098816 719.284119,531.180786 
	C729.308533,534.220947 739.125427,537.939392 749.664307,539.042542 
	C752.143799,539.302063 754.919556,539.509033 755.663940,543.133850 
	C756.079590,545.158081 758.165405,545.858093 760.029053,544.325439 
	C761.579041,543.050720 763.042664,542.473755 765.039978,543.187378 
	C778.787109,548.099304 793.419006,548.629150 807.521301,551.732910 
	C820.170837,554.516968 832.884460,555.074707 845.725037,554.757202 
	C849.742676,554.657776 853.741638,555.130249 857.562012,556.298645 
	C860.730347,557.267761 862.137817,558.484009 860.487000,562.831238 
	C858.183899,568.896362 853.689941,570.892334 848.580750,572.946228 
	C831.985718,579.617615 814.296509,580.666565 796.901611,583.434692 
	C778.495728,586.363586 759.907410,587.586487 741.433289,589.531555 
	C718.634766,591.931946 695.580139,591.399780 672.699890,587.967529 
	C662.688965,586.465881 652.495422,586.139893 642.374207,585.430481 
	C635.183472,584.926453 628.179260,583.568909 621.418640,581.141357 
	C617.450439,579.716614 613.369751,578.864014 609.242432,578.548767 
	C590.400940,577.109863 574.522156,567.662720 558.073730,559.787415 
	C555.793701,558.695801 552.694763,556.894104 553.982971,553.805969 
	C555.170166,550.960083 558.574585,551.597656 561.168884,551.897522 
	C573.165833,553.284180 584.563660,556.937073 595.732178,561.371216 
	C598.843201,562.606384 601.962036,563.619568 605.342651,563.893250 
	C613.518127,564.554993 621.373474,566.491150 629.007629,569.595032 
	C637.106812,572.888062 645.785828,574.128723 654.404968,574.426636 
	C666.457031,574.843262 678.117188,577.826843 690.031067,578.898010 
	C712.703186,580.936462 735.148438,582.289490 758.141113,579.232117 
	C780.083313,576.314392 801.671570,571.649292 823.558350,568.686157 
	C825.991333,568.356750 828.359619,567.549622 830.486084,567.030457 
	C806.682800,561.718445 782.524353,557.835693 758.990601,550.610291 
	C739.794678,544.716797 719.944397,541.004395 700.609558,535.406311 
	C685.594482,531.059021 670.451538,527.066162 654.936829,524.907593 
	C648.526733,524.015686 642.002136,523.869995 635.520752,523.585205 
	C624.042175,523.080688 612.559692,522.552673 601.073547,522.374512 
	C593.120667,522.251160 586.012695,526.410095 578.274536,527.558044 
	C574.889038,528.060181 571.504578,528.569641 568.156921,529.293213 
	C597.581665,529.961060 626.343689,535.463684 655.052246,540.889587 
	C665.082397,542.785278 674.983215,545.782715 684.951050,548.198853 
	C696.805847,551.072449 707.717224,557.397034 718.584229,563.190796 
	C720.718811,564.328796 723.238586,566.035645 722.293213,569.011169 
	C721.354187,571.966614 718.272400,571.900330 715.900696,571.700012 
	C706.407898,570.898010 697.065125,569.172668 688.464294,564.860046 
	C684.233398,562.738647 680.053711,561.042786 675.209229,561.001038 
	C672.066650,560.973999 668.811707,560.508301 665.995605,558.998169 
	C655.835388,553.549805 644.854004,551.139709 633.544922,549.772644 
	C621.931885,548.368896 611.086426,543.566895 599.545044,541.902893 
	C583.098267,539.531555 566.779541,537.601257 549.921387,539.598633 
	C537.199097,541.105957 524.542908,542.561096 511.975403,545.077515 
	C506.931000,546.087585 501.926910,546.049561 496.687195,547.628052 
	C481.292450,552.265930 473.268707,563.705994 465.584106,576.182739 
	C453.730133,595.428894 445.636536,616.443787 436.604279,637.018738 
	C435.628815,639.240662 434.049652,641.291870 433.977081,644.232483 
	C439.285645,643.576477 444.167755,640.694153 449.824036,641.905762 
	C449.995270,642.707703 450.204498,643.476685 450.319611,644.259521 
	C451.358612,651.324707 455.877686,654.415222 462.732544,652.390625 
	C465.782196,651.489929 468.698425,650.468140 471.968445,650.700439 
	C475.070496,650.920776 477.213837,649.249695 477.562958,646.193970 
	C477.949493,642.810547 479.629517,642.028687 482.219543,643.583923 
	C488.883789,647.585510 495.167786,646.741638 502.066010,643.731140 
	C508.645325,640.859680 515.831726,640.159668 523.130920,641.462646 
	C526.035706,641.981140 529.233032,642.110474 532.079468,641.461731 
	C539.297485,639.816772 546.273254,640.781433 553.337036,642.201843 
	C560.510071,643.644348 567.713501,644.730835 575.099060,644.795471 
	C582.847473,644.863403 590.041138,647.938904 597.343811,650.159119 
	C611.691589,654.521240 625.346252,661.032349 639.655762,665.250366 
	C653.757935,669.407288 666.346497,676.361084 679.030029,683.097046 
	C688.046631,687.885559 695.894897,694.890198 704.196594,700.998230 
	C706.354614,702.585938 707.919678,704.799683 709.281006,707.116211 
	C710.337036,708.913269 711.153320,710.866455 709.642822,712.682190 
	C708.149048,714.477600 706.071411,714.223999 704.118103,713.392700 
	C702.592529,712.743408 701.127991,711.950623 699.312195,711.110718 
	C698.988037,710.999939 699.024414,711.030762 699.024414,711.030762 
z"/>
<path fill="#000000" opacity="1.000000" stroke="none" 
	d="
M577.750122,107.769821 
	C583.150879,102.066147 588.199402,96.475403 594.469971,92.267334 
	C598.351257,89.662621 599.880127,90.586029 599.940308,95.265648 
	C599.950989,96.094894 599.812866,96.792450 600.431580,97.547821 
	C610.064575,109.308655 612.194641,123.786484 614.121277,138.029739 
	C616.052917,152.310349 615.503845,166.879044 618.886719,181.054306 
	C620.097107,186.126236 618.584473,191.359085 618.116333,196.465530 
	C616.880371,209.946609 617.249878,223.434174 617.297974,236.918137 
	C617.355347,253.034088 613.346619,268.558228 610.945557,284.323303 
	C606.676514,312.352936 598.838196,339.608795 591.584900,366.873962 
	C585.328430,390.392029 576.242737,413.209290 565.137268,435.206787 
	C551.961731,461.304565 534.723267,484.442413 517.061157,507.416748 
	C515.755920,509.114532 514.313110,510.706604 512.748352,512.569214 
	C510.199341,510.683075 507.890015,508.974274 505.220093,506.998657 
	C511.558380,498.159454 518.065857,489.540771 523.735474,480.354980 
	C524.959717,478.371460 526.277466,476.441071 527.633118,474.544067 
	C532.035767,468.383270 534.457336,462.040955 535.666138,454.079254 
	C537.673035,440.860992 540.770935,427.702942 542.989502,414.423584 
	C545.623718,398.656525 544.653931,382.955597 543.446411,367.158783 
	C542.174500,350.519043 539.677307,334.150269 535.092896,318.105042 
	C534.481262,315.964355 534.750549,314.259338 536.988281,313.095673 
	C539.105164,311.994843 539.541382,309.457153 541.054932,306.429474 
	C549.656677,341.900818 555.762451,376.338043 554.948669,410.483704 
	C560.325378,398.147339 563.503113,384.052643 564.600769,369.162903 
	C565.610352,355.466431 570.248535,342.195404 571.228943,328.367035 
	C571.757202,320.914886 572.830750,313.501038 573.676514,306.071991 
	C573.941833,303.741913 574.556335,301.574280 576.943115,299.734802 
	C581.754456,304.263062 582.319763,310.220947 583.147278,315.764038 
	C585.309570,330.247864 583.981934,344.636078 580.829224,358.885040 
	C579.464294,365.054169 577.999268,371.214294 578.361755,378.357086 
	C582.885559,370.679993 584.509888,362.746246 586.359070,354.835266 
	C592.755127,327.471954 598.278442,299.943115 602.335876,272.134247 
	C604.719604,255.796524 605.841614,239.412933 604.108582,222.888611 
	C603.291626,215.098602 603.988403,207.261749 604.571777,199.437180 
	C605.455383,187.586365 603.657959,175.944199 601.846375,164.220886 
	C599.639221,149.937317 601.055481,135.281113 598.291016,120.405594 
	C589.789490,133.006882 583.514099,146.262146 580.453979,160.766403 
	C575.880249,182.444977 573.201599,204.336365 573.085205,226.606491 
	C573.001282,242.673660 573.648682,258.831757 571.282532,274.838776 
	C571.258240,275.002991 571.299377,275.185547 571.244141,275.335266 
	C570.438416,277.517670 571.296082,281.268005 568.160583,281.342865 
	C565.116943,281.415588 565.609619,277.869598 565.438660,275.735840 
	C564.266907,261.113312 564.511841,246.506424 565.608582,231.864685 
	C566.888245,214.781219 568.123535,197.747040 571.658203,180.909836 
	C576.663757,157.065811 581.682190,133.298050 595.152832,112.381889 
	C597.110596,109.342018 597.825012,106.019539 596.853943,101.968292 
	C588.511108,115.083900 579.528381,127.334404 569.360596,140.625885 
	C568.247742,129.476776 564.348755,119.548370 574.180237,111.748764 
	C575.464966,110.729553 576.412537,109.285431 577.750122,107.769821 
z"/>
<path fill="#000000" opacity="1.000000" stroke="none" 
	d="
M466.014282,478.012299 
	C456.250031,449.021393 447.480988,419.596710 430.240997,393.753418 
	C428.403748,390.999359 427.012024,387.940247 425.507019,384.975250 
	C424.586243,383.161285 424.055450,381.249084 425.300659,379.191101 
	C428.503540,378.362030 430.098572,380.898834 431.947968,382.599915 
	C440.929779,390.861511 448.082214,400.659302 455.139526,410.563629 
	C452.242218,401.204315 447.860657,392.763824 442.364288,384.553436 
	C429.935577,365.987549 416.706512,348.046204 403.136444,330.326538 
	C399.165588,325.141449 394.739075,320.434845 389.832306,316.142242 
	C382.268311,309.525055 376.118103,301.633911 369.852539,293.844421 
	C367.206604,290.555023 364.638092,287.104553 360.134796,285.515167 
	C360.039459,288.099060 361.386353,289.646393 362.418915,291.275421 
	C371.768890,306.026764 381.523010,320.501160 391.568665,334.793823 
	C394.969452,339.632355 397.046814,345.407257 399.665039,350.785339 
	C400.329803,352.150848 400.601471,353.634216 399.504456,355.316040 
	C396.825531,356.104767 395.468262,353.914581 393.923645,352.360138 
	C388.452484,346.854218 385.223053,339.778595 381.225006,333.309265 
	C368.371094,312.510101 356.025757,291.396179 343.521057,270.381805 
	C339.281738,263.257599 336.054474,255.495041 330.144958,249.431152 
	C329.579620,248.851028 329.204803,248.052139 328.854095,247.302155 
	C327.805634,245.060028 326.065369,242.545303 328.140320,240.362030 
	C330.323883,238.064468 332.808746,239.935150 334.945282,241.123505 
	C343.683990,245.984024 350.671234,252.894730 356.833282,260.607941 
	C361.331329,266.238342 365.978027,271.597504 372.052948,275.606506 
	C375.012360,277.559479 377.147278,280.371368 379.061249,283.327759 
	C385.157257,292.743927 392.369141,301.224396 400.538391,308.895996 
	C406.910492,314.879974 411.813782,322.018829 416.574249,329.262268 
	C429.466675,348.878998 443.396881,367.916351 454.866333,388.334625 
	C464.891418,406.181519 475.265594,424.285156 478.461243,445.204224 
	C479.410645,451.419312 481.498260,457.452820 482.775391,463.629272 
	C483.306519,466.197784 483.365845,468.947083 483.140411,471.571320 
	C482.684662,476.877411 481.098816,477.967072 475.911835,476.590546 
	C472.562836,475.701752 469.745575,477.186493 466.363770,477.991394 
	C465.978027,477.977875 466.001892,478.001038 466.014282,478.012299 
z"/>
<path fill="#000000" opacity="1.000000" stroke="none" 
	d="
M698.968140,710.986694 
	C702.361267,713.987000 701.500549,716.784546 698.382019,719.280212 
	C693.137573,723.477295 687.340881,726.804504 680.931396,728.783508 
	C659.854797,735.291382 638.088867,737.820435 616.197876,739.227417 
	C606.693848,739.838318 597.328247,737.843811 588.054199,735.798157 
	C576.495178,733.248657 565.657593,728.407166 554.306396,725.157776 
	C548.060669,723.369751 542.451294,719.939880 537.691956,715.307922 
	C536.396729,714.047302 534.911438,712.662354 533.258606,712.139343 
	C520.334351,708.048950 514.890076,696.385681 507.520264,686.758179 
	C505.506470,684.127441 503.106842,680.149475 506.004364,677.208923 
	C509.223419,673.942139 512.418579,677.705872 515.220947,679.331177 
	C523.172913,683.943359 528.373169,691.470703 534.355835,698.140930 
	C536.216370,700.215271 538.137939,701.805359 541.019653,702.054993 
	C543.285645,702.251221 544.977722,703.580322 546.585449,705.116760 
	C551.716003,710.019958 557.627686,713.539062 564.461792,715.680420 
	C569.211060,717.168579 573.897888,719.012207 578.372437,721.190491 
	C590.095276,726.897278 602.621094,729.253174 615.418152,730.515381 
	C619.878784,730.955322 624.316040,730.509827 628.812622,729.838196 
	C642.621521,727.775757 656.303955,725.443054 669.569214,720.816223 
	C674.920105,718.949951 680.177490,716.954041 685.366272,714.708435 
	C689.480835,712.927734 693.593872,711.058838 698.617737,710.999268 
	C699.024414,711.030762 698.988037,710.999939 698.968140,710.986694 
z"/>
<path fill="#000000" opacity="1.000000" stroke="none" 
	d="
M538.984619,245.734924 
	C537.480225,261.322083 538.007019,276.424805 539.744873,291.504456 
	C539.896851,292.822662 540.140991,294.133118 540.224487,295.454590 
	C540.250305,295.863983 539.886169,296.298004 539.478516,297.226562 
	C537.071045,293.959290 534.974243,290.805725 531.143799,289.518646 
	C530.443420,289.283295 530.032715,287.539673 529.873413,286.436676 
	C527.196167,267.895325 526.874573,249.336334 529.345703,230.731110 
	C530.592163,221.346497 531.623596,211.929871 532.562378,202.508804 
	C533.544739,192.650406 535.921021,183.126663 539.967712,174.150650 
	C545.236389,162.464233 550.187561,150.663025 554.773010,138.697845 
	C555.893738,135.773300 557.370789,133.005203 559.723938,130.597137 
	C561.878174,132.133377 561.034302,134.082367 561.080078,135.730530 
	C561.255981,142.053543 561.085632,148.396957 561.535400,154.697723 
	C561.821167,158.701080 561.341370,162.349060 559.209167,165.690475 
	C549.565369,180.803497 545.823364,197.780304 543.338562,215.192490 
	C541.907166,225.222702 539.751160,235.149475 538.984619,245.734924 
z"/>
<path fill="#000000" opacity="1.000000" stroke="none" 
	d="
M321.519409,289.173218 
	C319.204559,274.995361 317.486389,261.147034 317.931824,247.156845 
	C318.019012,244.418823 317.773285,240.185959 321.348816,239.647461 
	C324.894165,239.113525 325.859528,243.116653 326.902252,245.778976 
	C331.240204,256.854431 332.857117,268.544586 334.277252,280.264526 
	C334.436310,281.577362 334.450592,283.038422 335.053711,284.146912 
	C342.501801,297.836121 341.794891,313.898865 347.880280,327.968903 
	C353.889618,341.862976 359.876404,355.767059 365.957458,369.629761 
	C369.571747,377.869049 369.644958,377.836945 360.850372,381.727875 
	C358.333588,379.543976 357.149353,376.360962 355.767944,373.441040 
	C348.440186,357.952118 341.269135,342.388855 334.099884,326.825500 
	C333.130310,324.720673 332.203888,322.528473 331.723450,320.277344 
	C329.459595,309.670288 326.362701,299.353455 321.519409,289.173218 
z"/>
<path fill="#000000" opacity="1.000000" stroke="none" 
	d="
M301.181641,847.016479 
	C299.744904,850.048889 298.767670,852.917419 296.734100,855.183594 
	C295.839966,856.179993 294.775757,857.194702 293.308777,856.740784 
	C291.777130,856.266846 291.594666,854.824707 291.639221,853.459534 
	C291.943054,844.154053 294.683289,835.322510 299.010956,827.354309 
	C301.125793,823.460449 307.288696,824.649414 311.248596,822.365784 
	C311.498749,822.703979 311.748932,823.042114 311.999084,823.380249 
	C308.437408,831.141479 304.875732,838.902771 301.181641,847.016479 
z"/>
</svg>